# xmcd
#
# Track frame offsets:
#   150
#   13940
#   33852
#   46627
#   67512
#   84145
#   102227
#   120200
#   132575
#   153125
#   170192
#
# Disc length: 2537 seconds
#
# Revision: 0
# Processed by: cddbd v1.5.2PL0 Copyright (c) Steve Scherf et al.
# Submitted via: uFREEDB ActiveX Control 1.5
#
DISCID=7609e70b
DTITLE=Porão 365 - Vai Se lembrar de Mim
DYEAR=2007
DGENRE=Children's Music
TTITLE0=1- Vai se lembrar 
TTITLE1=2- Chovia
TTITLE2=3- A sua espera
TTITLE3=4- A lenda I
TTITLE4=5- Genia 
TTITLE5=6- Misterios da meia noite
TTITLE6=7- Jorge
TTITLE7=8- Recados
TTITLE8=9- Eito de cana
TTITLE9=10- Trago flores pro teu coração
TTITLE10=11- rasgue a camisa
EXTD=
EXTT0=
EXTT1=
EXTT2=
EXTT3=
EXTT4=
EXTT5=
EXTT6=
EXTT7=
EXTT8=
EXTT9=
EXTT10=
PLAYORDER=
